#N canvas 328 18 1165 767 10;
#X obj 479 -456 r pitch;
#X msg 411 -433 1;
#X obj 382 -294 overdrive~;
#X msg 422 -321 1;
#X obj 380 -217 dac~;
#X obj 478 -375 select 1;
#X msg 438 -433 0;
#X obj 478 -353 delay 10000;
#X obj 837 -210 dac~;
#X obj 836 -313 *~ 0.5;
#X obj 895 -314 *~ 0.5;
#X obj 963 -502 r pitch;
#X floatatom 962 -315 5 0 0 0 - - -;
#X floatatom 852 -288 5 0 0 0 - - -;
#X obj 962 -359 * -1;
#X obj 478 -397 > 40;
#X obj 962 -462 clip -7 7;
#X obj 380 -271 *~ 0;
#X obj 850 -335 + 0.5;
#X obj 962 -337 + 0.5;
#X obj 962 -442 / 15;
#X obj 962 -397 line;
#X obj 961 -421 pack f 100;
#X obj 382 -496 r~ signal;
#X obj 836 -479 r~ signal;
#X text 518 -401 Threshold Angle;
#X obj 837 -245 *~ 0;
#X obj 872 -245 *~ 0;
#X obj 379 -566 cnv 15 200 60 empty empty empty 20 12 0 14 -261234
-66577 0;
#X text 436 -548 Star power;
#X obj 399 -552 tgl 30 0 empty empty empty 17 7 0 10 -262144 -258113
-1 0 1;
#X obj 833 -567 cnv 15 200 60 empty empty empty 20 12 0 14 -232576
-66577 0;
#X text 897 -551 Tremolo;
#X obj 857 -554 tgl 30 0 empty empty empty 17 7 0 10 -262144 -159808
-1 0 1;
#X obj 401 -160 cnv 15 450 200 empty empty empty 20 12 0 14 -203904
-66577 0;
#X obj 532 -84 f;
#X obj 563 -84 + 1;
#X obj 532 -63 mod 100;
#N canvas 0 0 450 300 (subpatch) 0;
#X array array1 100 float 0;
#X coords 0 50 99 -50 200 140 1;
#X restore 632 -135 graph;
#X obj 446 -16 tabwrite array1;
#X obj 530 -109 metro 100;
#X obj 446 -130 r pitch;
#X obj 531 -131 loadbang;
#X text 654 8 Pitch angle over 10 seconds;
#X obj 100 -571 cnv 15 250 400 empty empty empty 20 12 0 14 -228856
-66577 0;
#X msg 130 -497 devices;
#X msg 137 -473 close;
#X msg 124 -520 open 4;
#X floatatom 120 -264 5 0 0 0 - - -;
#X obj 120 -233 s roll;
#X obj 119 -380 route 82 80;
#X floatatom 188 -266 5 0 0 0 - - -;
#X obj 188 -234 s pitch;
#X obj 120 -340 unpack f;
#X obj 186 -341 unpack f;
#X obj 122 -413 zl group 2;
#X obj 120 -299 - 45.5;
#X obj 123 -442 comport 9600;
#X obj 188 -300 expr ($f1-45.5)*-1;
#X text 234 -265 Pitch angle;
#X text 200 -383 Route incoming angles;
#X obj 247 -498 loadbang;
#X obj 479 -417 * 0;
#X obj 409 -456 select 0 1;
#X obj 512 -552 bng 30 10000 50 0 empty empty empty 17 7 0 10 -262144
-258113 -1;
#X msg 247 -474 \; pd dsp 1 \;;
#X msg 391 -321 8;
#X obj 962 -482 - 15;
#X text 138 -564 Comport and Data Acquisition;
#X obj 468 -104 abs;
#X obj 469 -84 <= 1;
#X text 116 -19 Pietro Verrecchia McGill University MUMT 306 Fall 2012
;
#X obj 469 -62 tgl 30 0 empty empty empty 17 7 0 12 -203904 -4160 -1
0 1;
#X obj 605 -566 cnv 15 200 120 empty empty empty 20 12 0 14 -228856
-66577 0;
#X text 669 -563 Effect Bypass;
#X obj 646 -542 adc~;
#X obj 649 -516 s~ signal;
#X obj 646 -494 *~ 1;
#X obj 647 -473 dac~;
#X obj 711 -504 == 0;
#X obj 711 -524 |;
#X obj 733 -524 |;
#X connect 0 0 62 0;
#X connect 1 0 62 1;
#X connect 2 0 17 0;
#X connect 3 0 2 0;
#X connect 5 0 66 0;
#X connect 5 0 6 0;
#X connect 5 0 7 0;
#X connect 5 0 64 0;
#X connect 6 0 62 1;
#X connect 7 0 1 0;
#X connect 7 0 3 0;
#X connect 9 0 26 0;
#X connect 10 0 27 0;
#X connect 11 0 67 0;
#X connect 14 0 19 0;
#X connect 15 0 5 0;
#X connect 16 0 20 0;
#X connect 17 0 4 0;
#X connect 17 0 4 1;
#X connect 18 0 9 1;
#X connect 18 0 13 0;
#X connect 19 0 10 1;
#X connect 19 0 12 0;
#X connect 20 0 22 0;
#X connect 21 0 14 0;
#X connect 21 0 18 0;
#X connect 22 0 21 0;
#X connect 23 0 2 0;
#X connect 24 0 9 0;
#X connect 24 0 10 0;
#X connect 26 0 8 0;
#X connect 27 0 8 1;
#X connect 30 0 17 1;
#X connect 30 0 63 0;
#X connect 30 0 80 1;
#X connect 30 0 81 0;
#X connect 33 0 26 1;
#X connect 33 0 27 1;
#X connect 33 0 81 1;
#X connect 33 0 80 0;
#X connect 35 0 36 0;
#X connect 35 0 37 0;
#X connect 36 0 35 1;
#X connect 37 0 39 1;
#X connect 40 0 35 0;
#X connect 41 0 39 0;
#X connect 41 0 69 0;
#X connect 42 0 40 0;
#X connect 45 0 57 0;
#X connect 46 0 57 0;
#X connect 47 0 57 0;
#X connect 48 0 49 0;
#X connect 50 0 53 0;
#X connect 50 1 54 0;
#X connect 51 0 52 0;
#X connect 53 0 56 0;
#X connect 54 0 58 0;
#X connect 55 0 50 0;
#X connect 56 0 48 0;
#X connect 57 0 55 0;
#X connect 58 0 51 0;
#X connect 61 0 65 0;
#X connect 62 0 15 0;
#X connect 63 0 6 0;
#X connect 63 1 1 0;
#X connect 66 0 2 0;
#X connect 67 0 16 0;
#X connect 69 0 70 0;
#X connect 70 0 72 0;
#X connect 75 0 76 0;
#X connect 75 0 77 0;
#X connect 77 0 78 0;
#X connect 77 0 78 1;
#X connect 79 0 77 1;
#X connect 80 0 79 0;
#X connect 81 0 79 0;
